<mxfile host="app.diagrams.net" modified="2024-02-02T14:58:32.263Z" agent="Mozilla/5.0 (Windows NT 10.0; Win64; x64) AppleWebKit/537.36 (KHTML, like Gecko) Chrome/121.0.0.0 Safari/537.36" etag="9zHnEXlv0IZASglXt8MG" version="23.1.0" type="github">
  <diagram name="Page-1" id="dFmT0k2gK549pSDYuFuX">
    <mxGraphModel dx="1323" dy="765" grid="1" gridSize="10" guides="1" tooltips="1" connect="1" arrows="1" fold="1" page="1" pageScale="1" pageWidth="850" pageHeight="1100" math="0" shadow="0">
      <root>
        <mxCell id="0" />
        <mxCell id="1" parent="0" />
        <mxCell id="mUZtnaH7obr_7XcO_skg-1" value="Start" style="ellipse;whiteSpace=wrap;html=1;fillColor=#d5e8d4;strokeColor=#82b366;" vertex="1" parent="1">
          <mxGeometry x="10" y="10" width="120" height="80" as="geometry" />
        </mxCell>
        <mxCell id="mUZtnaH7obr_7XcO_skg-2" value="Leave house" style="rounded=0;whiteSpace=wrap;html=1;" vertex="1" parent="1">
          <mxGeometry x="180" y="20" width="120" height="60" as="geometry" />
        </mxCell>
        <mxCell id="mUZtnaH7obr_7XcO_skg-3" value="Lock door" style="shape=process;whiteSpace=wrap;html=1;backgroundOutline=1;" vertex="1" parent="1">
          <mxGeometry x="180" y="140" width="120" height="60" as="geometry" />
        </mxCell>
        <mxCell id="mUZtnaH7obr_7XcO_skg-4" value="Walk to bus stop" style="rounded=0;whiteSpace=wrap;html=1;" vertex="1" parent="1">
          <mxGeometry x="180" y="260" width="120" height="60" as="geometry" />
        </mxCell>
        <mxCell id="mUZtnaH7obr_7XcO_skg-8" value="Find a seat" style="shape=process;whiteSpace=wrap;html=1;backgroundOutline=1;" vertex="1" parent="1">
          <mxGeometry x="180" y="740" width="120" height="60" as="geometry" />
        </mxCell>
        <mxCell id="mUZtnaH7obr_7XcO_skg-11" value="Thank the bus driver" style="shape=process;whiteSpace=wrap;html=1;backgroundOutline=1;" vertex="1" parent="1">
          <mxGeometry x="340" y="20" width="120" height="60" as="geometry" />
        </mxCell>
        <mxCell id="mUZtnaH7obr_7XcO_skg-12" value="Walk to the store" style="rounded=0;whiteSpace=wrap;html=1;" vertex="1" parent="1">
          <mxGeometry x="340" y="140" width="120" height="60" as="geometry" />
        </mxCell>
        <mxCell id="mUZtnaH7obr_7XcO_skg-13" value="Get shopping basket" style="rounded=0;whiteSpace=wrap;html=1;" vertex="1" parent="1">
          <mxGeometry x="340" y="380" width="120" height="60" as="geometry" />
        </mxCell>
        <mxCell id="mUZtnaH7obr_7XcO_skg-14" value="Enter store" style="shape=process;whiteSpace=wrap;html=1;backgroundOutline=1;" vertex="1" parent="1">
          <mxGeometry x="340" y="260" width="120" height="60" as="geometry" />
        </mxCell>
        <mxCell id="mUZtnaH7obr_7XcO_skg-15" value="Get bananas, carrots, and a bunch of green onions" style="rounded=0;whiteSpace=wrap;html=1;" vertex="1" parent="1">
          <mxGeometry x="340" y="500" width="120" height="60" as="geometry" />
        </mxCell>
        <mxCell id="mUZtnaH7obr_7XcO_skg-16" value="Get 5 packets of ramen" style="rounded=0;whiteSpace=wrap;html=1;" vertex="1" parent="1">
          <mxGeometry x="340" y="620" width="120" height="60" as="geometry" />
        </mxCell>
        <mxCell id="mUZtnaH7obr_7XcO_skg-17" value="Get bag of cookies" style="rounded=0;whiteSpace=wrap;html=1;" vertex="1" parent="1">
          <mxGeometry x="340" y="740" width="120" height="60" as="geometry" />
        </mxCell>
        <mxCell id="mUZtnaH7obr_7XcO_skg-18" value="Go to checkout&amp;nbsp;" style="rounded=0;whiteSpace=wrap;html=1;" vertex="1" parent="1">
          <mxGeometry x="340" y="860" width="120" height="60" as="geometry" />
        </mxCell>
        <mxCell id="mUZtnaH7obr_7XcO_skg-20" value="Wait for cashier to scan groceries&amp;nbsp;" style="rounded=0;whiteSpace=wrap;html=1;" vertex="1" parent="1">
          <mxGeometry x="500" y="20" width="120" height="60" as="geometry" />
        </mxCell>
        <mxCell id="mUZtnaH7obr_7XcO_skg-21" value="Pay for groceries" style="rounded=0;whiteSpace=wrap;html=1;" vertex="1" parent="1">
          <mxGeometry x="500" y="140" width="120" height="60" as="geometry" />
        </mxCell>
        <mxCell id="mUZtnaH7obr_7XcO_skg-22" value="Bag groceries" style="rounded=0;whiteSpace=wrap;html=1;" vertex="1" parent="1">
          <mxGeometry x="500" y="260" width="120" height="60" as="geometry" />
        </mxCell>
        <mxCell id="mUZtnaH7obr_7XcO_skg-24" value="Walk to bus stop" style="rounded=0;whiteSpace=wrap;html=1;" vertex="1" parent="1">
          <mxGeometry x="500" y="500" width="120" height="60" as="geometry" />
        </mxCell>
        <mxCell id="mUZtnaH7obr_7XcO_skg-27" value="Pay fare" style="rounded=0;whiteSpace=wrap;html=1;" vertex="1" parent="1">
          <mxGeometry x="500" y="860" width="120" height="60" as="geometry" />
        </mxCell>
        <mxCell id="mUZtnaH7obr_7XcO_skg-29" value="Find a seat" style="shape=process;whiteSpace=wrap;html=1;backgroundOutline=1;" vertex="1" parent="1">
          <mxGeometry x="500" y="980" width="120" height="60" as="geometry" />
        </mxCell>
        <mxCell id="mUZtnaH7obr_7XcO_skg-30" value="Wait for stop" style="rounded=0;whiteSpace=wrap;html=1;" vertex="1" parent="1">
          <mxGeometry x="660" y="20" width="120" height="60" as="geometry" />
        </mxCell>
        <mxCell id="mUZtnaH7obr_7XcO_skg-33" value="Wait for bus" style="shape=process;whiteSpace=wrap;html=1;backgroundOutline=1;" vertex="1" parent="1">
          <mxGeometry x="180" y="380" width="120" height="60" as="geometry" />
        </mxCell>
        <mxCell id="mUZtnaH7obr_7XcO_skg-34" value="Get on bus" style="shape=process;whiteSpace=wrap;html=1;backgroundOutline=1;" vertex="1" parent="1">
          <mxGeometry x="180" y="500" width="120" height="60" as="geometry" />
        </mxCell>
        <mxCell id="mUZtnaH7obr_7XcO_skg-35" value="Pay fare" style="shape=process;whiteSpace=wrap;html=1;backgroundOutline=1;" vertex="1" parent="1">
          <mxGeometry x="180" y="620" width="120" height="60" as="geometry" />
        </mxCell>
        <mxCell id="mUZtnaH7obr_7XcO_skg-36" value="Wait for stop" style="shape=process;whiteSpace=wrap;html=1;backgroundOutline=1;" vertex="1" parent="1">
          <mxGeometry x="180" y="860" width="120" height="60" as="geometry" />
        </mxCell>
        <mxCell id="mUZtnaH7obr_7XcO_skg-37" value="Get off the bus" style="shape=process;whiteSpace=wrap;html=1;backgroundOutline=1;" vertex="1" parent="1">
          <mxGeometry x="180" y="980" width="120" height="60" as="geometry" />
        </mxCell>
        <mxCell id="mUZtnaH7obr_7XcO_skg-38" value="Wait in line" style="shape=process;whiteSpace=wrap;html=1;backgroundOutline=1;" vertex="1" parent="1">
          <mxGeometry x="340" y="980" width="120" height="60" as="geometry" />
        </mxCell>
        <mxCell id="mUZtnaH7obr_7XcO_skg-39" value="Wait for cashier to scan groceries&amp;nbsp;" style="shape=process;whiteSpace=wrap;html=1;backgroundOutline=1;" vertex="1" parent="1">
          <mxGeometry x="500" y="20" width="120" height="60" as="geometry" />
        </mxCell>
        <mxCell id="mUZtnaH7obr_7XcO_skg-40" value="Pay for groceries" style="shape=process;whiteSpace=wrap;html=1;backgroundOutline=1;" vertex="1" parent="1">
          <mxGeometry x="500" y="140" width="120" height="60" as="geometry" />
        </mxCell>
        <mxCell id="mUZtnaH7obr_7XcO_skg-41" value="Bag groceries" style="shape=process;whiteSpace=wrap;html=1;backgroundOutline=1;" vertex="1" parent="1">
          <mxGeometry x="500" y="260" width="120" height="60" as="geometry" />
        </mxCell>
        <mxCell id="mUZtnaH7obr_7XcO_skg-42" value="Leave store" style="shape=process;whiteSpace=wrap;html=1;backgroundOutline=1;" vertex="1" parent="1">
          <mxGeometry x="500" y="380" width="120" height="60" as="geometry" />
        </mxCell>
        <mxCell id="mUZtnaH7obr_7XcO_skg-43" value="Wait for bus" style="shape=process;whiteSpace=wrap;html=1;backgroundOutline=1;" vertex="1" parent="1">
          <mxGeometry x="500" y="620" width="120" height="60" as="geometry" />
        </mxCell>
        <mxCell id="mUZtnaH7obr_7XcO_skg-44" value="Get on bus" style="shape=process;whiteSpace=wrap;html=1;backgroundOutline=1;" vertex="1" parent="1">
          <mxGeometry x="500" y="740" width="120" height="60" as="geometry" />
        </mxCell>
        <mxCell id="mUZtnaH7obr_7XcO_skg-45" value="Wait for stop" style="shape=process;whiteSpace=wrap;html=1;backgroundOutline=1;" vertex="1" parent="1">
          <mxGeometry x="660" y="20" width="120" height="60" as="geometry" />
        </mxCell>
        <mxCell id="mUZtnaH7obr_7XcO_skg-46" value="Walk home" style="rounded=0;whiteSpace=wrap;html=1;" vertex="1" parent="1">
          <mxGeometry x="660" y="140" width="120" height="60" as="geometry" />
        </mxCell>
        <mxCell id="mUZtnaH7obr_7XcO_skg-47" value="Stop" style="ellipse;whiteSpace=wrap;html=1;fillColor=#ffcccc;strokeColor=#36393d;" vertex="1" parent="1">
          <mxGeometry x="660" y="370" width="120" height="80" as="geometry" />
        </mxCell>
        <mxCell id="mUZtnaH7obr_7XcO_skg-49" value="Enter home" style="shape=process;whiteSpace=wrap;html=1;backgroundOutline=1;" vertex="1" parent="1">
          <mxGeometry x="660" y="260" width="120" height="60" as="geometry" />
        </mxCell>
        <mxCell id="mUZtnaH7obr_7XcO_skg-50" value="" style="endArrow=classic;html=1;rounded=0;" edge="1" parent="1">
          <mxGeometry width="50" height="50" relative="1" as="geometry">
            <mxPoint x="310" y="1010" as="sourcePoint" />
            <mxPoint x="330" y="50" as="targetPoint" />
          </mxGeometry>
        </mxCell>
        <mxCell id="mUZtnaH7obr_7XcO_skg-51" value="" style="endArrow=classic;html=1;rounded=0;" edge="1" parent="1">
          <mxGeometry width="50" height="50" relative="1" as="geometry">
            <mxPoint x="470" y="1010" as="sourcePoint" />
            <mxPoint x="490" y="50" as="targetPoint" />
          </mxGeometry>
        </mxCell>
        <mxCell id="mUZtnaH7obr_7XcO_skg-52" value="" style="endArrow=classic;html=1;rounded=0;" edge="1" parent="1">
          <mxGeometry width="50" height="50" relative="1" as="geometry">
            <mxPoint x="630" y="1010" as="sourcePoint" />
            <mxPoint x="650" y="50" as="targetPoint" />
          </mxGeometry>
        </mxCell>
        <mxCell id="mUZtnaH7obr_7XcO_skg-53" value="" style="endArrow=classic;html=1;rounded=0;" edge="1" parent="1">
          <mxGeometry width="50" height="50" relative="1" as="geometry">
            <mxPoint x="140" y="50" as="sourcePoint" />
            <mxPoint x="170" y="50" as="targetPoint" />
          </mxGeometry>
        </mxCell>
        <mxCell id="mUZtnaH7obr_7XcO_skg-54" value="" style="endArrow=classic;html=1;rounded=0;" edge="1" parent="1">
          <mxGeometry width="50" height="50" relative="1" as="geometry">
            <mxPoint x="240" y="90" as="sourcePoint" />
            <mxPoint x="240" y="130" as="targetPoint" />
          </mxGeometry>
        </mxCell>
        <mxCell id="mUZtnaH7obr_7XcO_skg-55" value="" style="endArrow=classic;html=1;rounded=0;" edge="1" parent="1">
          <mxGeometry width="50" height="50" relative="1" as="geometry">
            <mxPoint x="239.69" y="210" as="sourcePoint" />
            <mxPoint x="239.69" y="250" as="targetPoint" />
          </mxGeometry>
        </mxCell>
        <mxCell id="mUZtnaH7obr_7XcO_skg-56" value="" style="endArrow=classic;html=1;rounded=0;" edge="1" parent="1">
          <mxGeometry width="50" height="50" relative="1" as="geometry">
            <mxPoint x="239.69" y="330" as="sourcePoint" />
            <mxPoint x="239.69" y="370" as="targetPoint" />
          </mxGeometry>
        </mxCell>
        <mxCell id="mUZtnaH7obr_7XcO_skg-57" value="" style="endArrow=classic;html=1;rounded=0;" edge="1" parent="1">
          <mxGeometry width="50" height="50" relative="1" as="geometry">
            <mxPoint x="239.84000000000003" y="450" as="sourcePoint" />
            <mxPoint x="239.84000000000003" y="490" as="targetPoint" />
          </mxGeometry>
        </mxCell>
        <mxCell id="mUZtnaH7obr_7XcO_skg-58" value="" style="endArrow=classic;html=1;rounded=0;" edge="1" parent="1">
          <mxGeometry width="50" height="50" relative="1" as="geometry">
            <mxPoint x="239.52999999999997" y="570" as="sourcePoint" />
            <mxPoint x="239.52999999999997" y="610" as="targetPoint" />
          </mxGeometry>
        </mxCell>
        <mxCell id="mUZtnaH7obr_7XcO_skg-59" value="" style="endArrow=classic;html=1;rounded=0;" edge="1" parent="1">
          <mxGeometry width="50" height="50" relative="1" as="geometry">
            <mxPoint x="239.52999999999997" y="690" as="sourcePoint" />
            <mxPoint x="239.52999999999997" y="730" as="targetPoint" />
          </mxGeometry>
        </mxCell>
        <mxCell id="mUZtnaH7obr_7XcO_skg-60" value="" style="endArrow=classic;html=1;rounded=0;" edge="1" parent="1">
          <mxGeometry width="50" height="50" relative="1" as="geometry">
            <mxPoint x="239.57" y="810" as="sourcePoint" />
            <mxPoint x="239.57" y="850" as="targetPoint" />
          </mxGeometry>
        </mxCell>
        <mxCell id="mUZtnaH7obr_7XcO_skg-61" value="" style="endArrow=classic;html=1;rounded=0;" edge="1" parent="1">
          <mxGeometry width="50" height="50" relative="1" as="geometry">
            <mxPoint x="239.57" y="930" as="sourcePoint" />
            <mxPoint x="239.57" y="970" as="targetPoint" />
          </mxGeometry>
        </mxCell>
        <mxCell id="mUZtnaH7obr_7XcO_skg-62" value="" style="endArrow=classic;html=1;rounded=0;" edge="1" parent="1">
          <mxGeometry width="50" height="50" relative="1" as="geometry">
            <mxPoint x="399.8" y="90" as="sourcePoint" />
            <mxPoint x="399.8" y="130" as="targetPoint" />
          </mxGeometry>
        </mxCell>
        <mxCell id="mUZtnaH7obr_7XcO_skg-63" value="" style="endArrow=classic;html=1;rounded=0;" edge="1" parent="1">
          <mxGeometry width="50" height="50" relative="1" as="geometry">
            <mxPoint x="399.49" y="210" as="sourcePoint" />
            <mxPoint x="399.49" y="250" as="targetPoint" />
          </mxGeometry>
        </mxCell>
        <mxCell id="mUZtnaH7obr_7XcO_skg-64" value="" style="endArrow=classic;html=1;rounded=0;" edge="1" parent="1">
          <mxGeometry width="50" height="50" relative="1" as="geometry">
            <mxPoint x="399.49" y="330" as="sourcePoint" />
            <mxPoint x="399.49" y="370" as="targetPoint" />
          </mxGeometry>
        </mxCell>
        <mxCell id="mUZtnaH7obr_7XcO_skg-65" value="" style="endArrow=classic;html=1;rounded=0;" edge="1" parent="1">
          <mxGeometry width="50" height="50" relative="1" as="geometry">
            <mxPoint x="399.64" y="450" as="sourcePoint" />
            <mxPoint x="399.64" y="490" as="targetPoint" />
          </mxGeometry>
        </mxCell>
        <mxCell id="mUZtnaH7obr_7XcO_skg-66" value="" style="endArrow=classic;html=1;rounded=0;" edge="1" parent="1">
          <mxGeometry width="50" height="50" relative="1" as="geometry">
            <mxPoint x="399.33000000000004" y="570" as="sourcePoint" />
            <mxPoint x="399.33000000000004" y="610" as="targetPoint" />
          </mxGeometry>
        </mxCell>
        <mxCell id="mUZtnaH7obr_7XcO_skg-67" value="" style="endArrow=classic;html=1;rounded=0;" edge="1" parent="1">
          <mxGeometry width="50" height="50" relative="1" as="geometry">
            <mxPoint x="399.33000000000004" y="690" as="sourcePoint" />
            <mxPoint x="399.33000000000004" y="730" as="targetPoint" />
          </mxGeometry>
        </mxCell>
        <mxCell id="mUZtnaH7obr_7XcO_skg-68" value="" style="endArrow=classic;html=1;rounded=0;" edge="1" parent="1">
          <mxGeometry width="50" height="50" relative="1" as="geometry">
            <mxPoint x="399.37" y="810" as="sourcePoint" />
            <mxPoint x="399.37" y="850" as="targetPoint" />
          </mxGeometry>
        </mxCell>
        <mxCell id="mUZtnaH7obr_7XcO_skg-69" value="" style="endArrow=classic;html=1;rounded=0;" edge="1" parent="1">
          <mxGeometry width="50" height="50" relative="1" as="geometry">
            <mxPoint x="399.37" y="930" as="sourcePoint" />
            <mxPoint x="399.37" y="970" as="targetPoint" />
          </mxGeometry>
        </mxCell>
        <mxCell id="mUZtnaH7obr_7XcO_skg-70" value="" style="endArrow=classic;html=1;rounded=0;" edge="1" parent="1">
          <mxGeometry width="50" height="50" relative="1" as="geometry">
            <mxPoint x="559.8" y="90" as="sourcePoint" />
            <mxPoint x="559.8" y="130" as="targetPoint" />
          </mxGeometry>
        </mxCell>
        <mxCell id="mUZtnaH7obr_7XcO_skg-71" value="" style="endArrow=classic;html=1;rounded=0;" edge="1" parent="1">
          <mxGeometry width="50" height="50" relative="1" as="geometry">
            <mxPoint x="559.49" y="210" as="sourcePoint" />
            <mxPoint x="559.49" y="250" as="targetPoint" />
          </mxGeometry>
        </mxCell>
        <mxCell id="mUZtnaH7obr_7XcO_skg-72" value="" style="endArrow=classic;html=1;rounded=0;" edge="1" parent="1">
          <mxGeometry width="50" height="50" relative="1" as="geometry">
            <mxPoint x="559.49" y="330" as="sourcePoint" />
            <mxPoint x="559.49" y="370" as="targetPoint" />
          </mxGeometry>
        </mxCell>
        <mxCell id="mUZtnaH7obr_7XcO_skg-73" value="" style="endArrow=classic;html=1;rounded=0;" edge="1" parent="1">
          <mxGeometry width="50" height="50" relative="1" as="geometry">
            <mxPoint x="559.64" y="450" as="sourcePoint" />
            <mxPoint x="559.64" y="490" as="targetPoint" />
          </mxGeometry>
        </mxCell>
        <mxCell id="mUZtnaH7obr_7XcO_skg-74" value="" style="endArrow=classic;html=1;rounded=0;" edge="1" parent="1">
          <mxGeometry width="50" height="50" relative="1" as="geometry">
            <mxPoint x="559.33" y="570" as="sourcePoint" />
            <mxPoint x="559.33" y="610" as="targetPoint" />
          </mxGeometry>
        </mxCell>
        <mxCell id="mUZtnaH7obr_7XcO_skg-75" value="" style="endArrow=classic;html=1;rounded=0;" edge="1" parent="1">
          <mxGeometry width="50" height="50" relative="1" as="geometry">
            <mxPoint x="559.33" y="690" as="sourcePoint" />
            <mxPoint x="559.33" y="730" as="targetPoint" />
          </mxGeometry>
        </mxCell>
        <mxCell id="mUZtnaH7obr_7XcO_skg-76" value="" style="endArrow=classic;html=1;rounded=0;" edge="1" parent="1">
          <mxGeometry width="50" height="50" relative="1" as="geometry">
            <mxPoint x="559.37" y="810" as="sourcePoint" />
            <mxPoint x="559.37" y="850" as="targetPoint" />
          </mxGeometry>
        </mxCell>
        <mxCell id="mUZtnaH7obr_7XcO_skg-77" value="" style="endArrow=classic;html=1;rounded=0;" edge="1" parent="1">
          <mxGeometry width="50" height="50" relative="1" as="geometry">
            <mxPoint x="559.37" y="930" as="sourcePoint" />
            <mxPoint x="559.37" y="970" as="targetPoint" />
          </mxGeometry>
        </mxCell>
        <mxCell id="mUZtnaH7obr_7XcO_skg-78" value="" style="endArrow=classic;html=1;rounded=0;" edge="1" parent="1">
          <mxGeometry width="50" height="50" relative="1" as="geometry">
            <mxPoint x="719.63" y="90" as="sourcePoint" />
            <mxPoint x="719.63" y="130" as="targetPoint" />
          </mxGeometry>
        </mxCell>
        <mxCell id="mUZtnaH7obr_7XcO_skg-79" value="" style="endArrow=classic;html=1;rounded=0;" edge="1" parent="1">
          <mxGeometry width="50" height="50" relative="1" as="geometry">
            <mxPoint x="719.32" y="210" as="sourcePoint" />
            <mxPoint x="719.32" y="250" as="targetPoint" />
          </mxGeometry>
        </mxCell>
        <mxCell id="mUZtnaH7obr_7XcO_skg-80" value="" style="endArrow=classic;html=1;rounded=0;" edge="1" parent="1">
          <mxGeometry width="50" height="50" relative="1" as="geometry">
            <mxPoint x="719.32" y="330" as="sourcePoint" />
            <mxPoint x="719" y="360" as="targetPoint" />
          </mxGeometry>
        </mxCell>
      </root>
    </mxGraphModel>
  </diagram>
</mxfile>
